<?xml version="1.0" standalone="no"?>
<!DOCTYPE svg PUBLIC "-//W3C//DTD SVG 20010904//EN"
 "http://www.w3.org/TR/2001/REC-SVG-20010904/DTD/svg10.dtd">
<svg version="1.0" xmlns="http://www.w3.org/2000/svg"
 width="1536.000000pt" height="1536.000000pt" viewBox="0 0 1536.000000 1536.000000"
 preserveAspectRatio="xMidYMid meet">

<g transform="translate(-384.000000,1920.000000) scale(0.150000,-0.150000)"
fill="#6E65C6" stroke="none">
<path d="M6882 11973 c-16 -6 -42 -57 -42 -83 0 -11 14 -67 30 -123 70 -234
103 -499 103 -822 0 -372 -48 -668 -163 -1000 -85 -244 -160 -402 -283 -587
-64 -98 -87 -124 -87 -99 0 19 -204 314 -303 436 -216 269 -436 488 -680 678
-158 124 -222 144 -278 88 -38 -38 -37 -65 6 -193 154 -462 137 -1052 -45
-1598 -65 -196 -112 -304 -262 -600 -236 -467 -373 -905 -418 -1340 -15 -145
-12 -457 6 -610 65 -562 292 -1094 651 -1527 103 -124 329 -346 453 -445 426
-339 931 -561 1450 -638 411 -61 942 -65 1280 -9 1008 165 1861 790 2300 1684
91 185 133 291 184 465 193 667 144 1344 -150 2064 -49 119 -187 396 -231 463
-46 71 -125 93 -190 53 -40 -24 -56 -55 -82 -156 -66 -260 -214 -595 -358
-812 l-58 -87 -3 283 -2 282 -370 0 c-404 0 -405 0 -472 59 -70 61 -72 74 -78
379 l-5 274 -33 29 -32 29 -258 0 c-155 0 -273 4 -297 11 -26 7 -57 28 -87 59
-69 72 -70 76 -66 650 3 491 3 495 25 537 27 50 73 87 128 102 24 7 141 11
293 11 280 0 298 3 328 62 23 45 14 146 -19 221 -48 106 -348 525 -553 772
-138 165 -494 524 -644 647 -385 316 -588 431 -688 391z m880 -3651 c327 -335
600 -852 707 -1338 44 -196 55 -325 55 -629 1 -159 -2 -334 -7 -387 l-7 -98
93 0 c210 0 447 39 602 99 69 26 163 82 254 148 l24 18 -6 -123 c-32 -597
-280 -1194 -702 -1692 -96 -113 -309 -319 -415 -401 -153 -120 -298 -203 -425
-247 -216 -73 -382 -50 -680 96 -597 293 -1034 683 -1240 1105 -102 209 -140
395 -132 637 13 360 101 569 415 988 161 217 237 385 267 594 15 109 18 274 6
371 -4 31 -4 57 -1 57 13 0 130 -129 167 -185 22 -33 66 -111 97 -172 31 -62
60 -113 65 -113 21 0 158 115 272 229 292 293 470 684 473 1038 1 62 4 113 7
113 3 0 53 -49 111 -108z"/>
<path d="M9083 10405 c-18 -8 -42 -29 -53 -47 -19 -31 -20 -50 -20 -380 l0
-348 -346 0 -346 0 -34 -34 -34 -34 0 -356 c0 -297 3 -362 15 -386 31 -61 27
-60 402 -60 l343 0 0 -327 c0 -361 2 -372 63 -417 28 -20 40 -21 377 -21 478
0 440 -38 440 438 l0 327 346 0 346 0 34 34 34 34 0 364 c0 398 1 391 -60 423
-24 12 -86 15 -365 15 l-335 0 0 348 c0 330 -1 349 -20 380 -37 60 -53 62
-422 62 -263 -1 -340 -4 -365 -15z"/>
</g>
</svg>
