<?xml version="1.0" standalone="no"?>
<!DOCTYPE svg PUBLIC "-//W3C//DTD SVG 20010904//EN"
 "http://www.w3.org/TR/2001/REC-SVG-20010904/DTD/svg10.dtd">
<svg version="1.0" xmlns="http://www.w3.org/2000/svg"
 width="1668.000000pt" height="1668.000000pt" viewBox="0 0 1668.000000 1668.000000"
 preserveAspectRatio="xMidYMid meet">

<g transform="translate(0.000000,1668.000000) scale(0.100000,-0.100000)"
fill="#FFFFFF" stroke="none">
<path d="M7255 15390 c-27 -4 -62 -14 -77 -22 -41 -22 -108 -81 -108 -95 0 -7
-4 -13 -10 -13 -5 0 -13 -12 -16 -27 -4 -16 -10 -32 -14 -38 -13 -18 -18 -109
-10 -175 17 -123 31 -205 40 -225 5 -11 11 -38 14 -60 18 -146 29 -223 37
-240 4 -11 10 -49 13 -85 3 -36 10 -121 16 -190 14 -164 14 -775 -1 -915 -18
-177 -40 -329 -68 -470 -6 -27 -15 -79 -21 -115 -6 -36 -15 -74 -20 -85 -5
-11 -11 -38 -15 -60 -7 -45 -23 -101 -36 -127 -5 -10 -9 -24 -9 -32 0 -16 -28
-114 -40 -136 -4 -9 -11 -31 -15 -50 -4 -19 -11 -41 -15 -50 -5 -8 -27 -62
-50 -120 -23 -58 -48 -117 -56 -132 -8 -14 -14 -33 -14 -41 0 -9 -3 -17 -7
-19 -5 -2 -39 -66 -78 -143 -38 -77 -76 -146 -82 -153 -7 -7 -13 -20 -13 -28
0 -8 -4 -14 -9 -14 -5 0 -11 -10 -15 -23 -3 -12 -13 -31 -23 -42 -10 -12 -27
-37 -37 -58 -11 -20 -23 -37 -28 -37 -4 0 -8 -6 -8 -13 0 -8 -9 -24 -20 -37
-11 -13 -20 -26 -20 -29 0 -3 -16 -24 -35 -46 -19 -22 -35 -43 -35 -47 0 -23
-50 9 -50 31 0 6 -4 11 -10 11 -5 0 -10 6 -10 14 0 8 -6 21 -12 28 -24 24 -68
87 -68 95 0 4 -14 23 -30 42 -17 18 -30 40 -30 47 0 8 -4 14 -8 14 -4 0 -16
15 -27 33 -10 17 -21 34 -24 37 -3 3 -26 32 -51 65 -25 33 -51 66 -57 73 -7 7
-13 16 -13 20 0 4 -16 24 -35 44 -19 20 -35 41 -35 47 0 5 -6 14 -13 18 -6 4
-27 26 -45 48 -86 102 -119 141 -150 174 -54 60 -308 313 -367 366 -30 28 -76
69 -101 93 -25 23 -49 42 -52 42 -4 0 -26 17 -48 38 -61 55 -86 75 -115 94
-14 9 -33 23 -40 31 -8 8 -35 26 -59 42 -25 15 -47 31 -50 35 -8 12 -101 33
-145 33 -57 0 -130 -19 -156 -40 -68 -55 -89 -76 -89 -89 0 -8 -4 -14 -9 -14
-18 0 -48 -154 -33 -173 5 -6 12 -32 16 -57 7 -48 23 -104 37 -132 5 -10 12
-42 15 -73 4 -31 11 -58 15 -61 5 -3 9 -20 9 -37 0 -18 5 -49 11 -70 21 -78
32 -241 36 -536 2 -200 0 -308 -7 -315 -5 -5 -10 -37 -10 -71 -1 -88 -20 -215
-54 -370 -9 -38 -19 -86 -22 -105 -4 -19 -10 -39 -14 -45 -4 -5 -11 -32 -15
-59 -3 -27 -10 -56 -15 -65 -4 -9 -16 -45 -26 -81 -10 -36 -21 -69 -25 -75 -4
-5 -10 -26 -14 -45 -4 -19 -16 -53 -26 -74 -11 -22 -19 -45 -19 -50 0 -6 -6
-23 -14 -38 -8 -15 -17 -40 -21 -57 -4 -17 -11 -31 -16 -31 -5 0 -9 -11 -9
-25 0 -14 -4 -25 -10 -25 -5 0 -10 -6 -10 -12 0 -7 -14 -40 -30 -73 -16 -33
-30 -68 -30 -77 0 -10 -4 -18 -10 -18 -5 0 -10 -7 -10 -15 0 -8 -4 -15 -10
-15 -5 0 -10 -5 -10 -12 0 -14 -136 -284 -150 -298 -6 -6 -68 -122 -85 -157
-5 -13 -13 -23 -17 -23 -3 0 -9 -14 -13 -30 -4 -16 -11 -30 -16 -30 -5 0 -9
-7 -9 -15 0 -8 -14 -37 -30 -63 -17 -27 -30 -53 -30 -57 0 -4 -8 -19 -19 -33
-10 -15 -22 -38 -26 -52 -4 -14 -10 -27 -14 -30 -12 -10 -41 -69 -41 -84 0 -9
-4 -16 -10 -16 -5 0 -10 -4 -10 -9 0 -10 -37 -95 -95 -216 -19 -38 -37 -82
-40 -98 -4 -15 -11 -30 -16 -33 -5 -3 -9 -14 -9 -25 0 -10 -4 -19 -10 -19 -5
0 -10 -8 -10 -17 0 -10 -7 -31 -15 -47 -8 -15 -15 -35 -15 -42 0 -8 -4 -14 -9
-14 -5 0 -12 -17 -16 -37 -4 -21 -10 -42 -14 -48 -4 -5 -16 -38 -27 -72 -10
-35 -22 -63 -26 -63 -5 0 -8 -7 -8 -15 0 -17 -27 -103 -39 -125 -5 -9 -12 -36
-16 -60 -4 -24 -11 -51 -16 -60 -7 -15 -25 -79 -36 -130 -2 -14 -7 -32 -11
-40 -3 -8 -12 -44 -19 -80 -7 -36 -18 -85 -24 -110 -9 -41 -25 -127 -48 -265
-5 -27 -12 -66 -15 -85 -9 -46 -24 -234 -36 -448 -14 -230 14 -828 40 -890 6
-13 10 -43 10 -67 0 -24 4 -46 9 -49 5 -3 12 -41 16 -83 4 -43 11 -82 15 -88
4 -5 10 -28 13 -50 9 -67 30 -160 37 -165 4 -3 10 -18 13 -35 13 -70 28 -131
37 -146 4 -9 11 -37 15 -63 4 -25 11 -46 15 -46 4 0 10 -12 13 -27 9 -43 31
-117 37 -123 3 -3 15 -32 25 -65 11 -33 23 -62 27 -65 3 -3 9 -22 13 -43 4
-20 11 -37 16 -37 5 0 9 -9 9 -19 0 -11 4 -22 9 -26 5 -3 12 -19 16 -35 4 -17
11 -30 16 -30 5 0 9 -6 9 -14 0 -7 7 -27 15 -42 8 -16 15 -37 15 -46 0 -10 5
-18 10 -18 6 0 10 -4 10 -10 0 -16 34 -90 42 -90 3 0 9 -14 13 -30 4 -17 10
-30 14 -30 3 0 15 -22 26 -50 11 -27 23 -50 26 -50 4 0 10 -13 14 -30 4 -17
10 -30 15 -30 4 0 20 -26 36 -58 16 -31 31 -59 34 -62 7 -7 29 -42 37 -60 4
-8 13 -21 20 -28 7 -7 13 -20 13 -28 0 -8 4 -14 9 -14 5 0 11 -8 15 -17 6 -18
27 -54 37 -63 3 -3 20 -29 39 -57 18 -29 37 -53 42 -53 4 0 8 -6 8 -13 0 -8
11 -27 25 -43 14 -16 25 -32 25 -35 0 -3 9 -17 21 -30 11 -13 29 -34 40 -47
10 -12 19 -27 19 -32 0 -5 13 -23 30 -38 16 -16 30 -32 30 -36 0 -4 11 -18 24
-31 14 -14 37 -41 53 -62 15 -21 50 -59 76 -87 26 -27 57 -61 68 -75 34 -43
275 -285 336 -337 32 -27 65 -55 73 -64 14 -14 112 -97 154 -130 10 -8 34 -30
53 -47 19 -18 39 -33 45 -33 6 0 21 -11 34 -25 13 -14 28 -25 34 -25 5 0 10
-3 10 -8 0 -4 16 -16 35 -26 19 -11 35 -23 35 -27 0 -4 9 -11 21 -14 12 -4 28
-13 37 -21 43 -37 81 -64 91 -64 6 0 11 -4 11 -10 0 -5 4 -10 9 -10 4 0 42
-22 83 -49 41 -28 93 -59 114 -71 21 -12 57 -32 79 -46 22 -13 51 -30 65 -37
14 -6 27 -14 30 -17 11 -11 72 -40 86 -40 8 0 14 -4 14 -9 0 -5 14 -12 30 -16
17 -4 30 -11 30 -16 0 -5 7 -9 15 -9 8 0 15 -4 15 -9 0 -5 16 -12 35 -15 19
-4 35 -11 35 -16 0 -6 4 -10 9 -10 10 0 121 -48 184 -81 22 -10 43 -19 49 -19
5 0 24 -6 41 -14 18 -8 57 -22 87 -32 30 -11 57 -21 60 -24 3 -3 32 -13 65
-24 33 -10 67 -22 76 -26 9 -5 33 -12 53 -15 20 -4 39 -11 42 -16 3 -5 13 -9
23 -9 18 0 105 -24 146 -40 11 -4 52 -16 90 -25 39 -9 79 -21 90 -25 11 -5 45
-12 75 -16 30 -3 60 -10 65 -14 6 -4 26 -10 45 -13 423 -71 523 -83 823 -98
302 -16 634 0 947 45 208 31 269 41 276 49 4 4 22 7 41 7 18 0 33 4 33 9 0 4
26 11 59 15 32 4 82 15 111 26 29 10 72 22 96 26 24 3 47 10 50 15 3 5 16 9
30 9 13 0 32 4 42 9 9 5 51 20 92 32 41 13 79 26 84 31 6 4 20 8 33 8 13 0 23
4 23 9 0 5 18 11 40 15 22 3 40 11 40 16 0 6 8 10 19 10 10 0 32 7 47 15 16 8
37 15 47 15 9 0 17 5 17 10 0 6 7 10 16 10 9 0 62 22 118 49 56 27 124 58 151
70 67 29 99 45 105 51 3 3 37 21 75 40 39 19 72 38 75 41 3 4 15 9 28 13 12 4
22 12 22 17 0 5 7 9 15 9 8 0 15 4 15 8 0 4 12 13 28 19 39 17 94 50 201 121
52 34 97 62 102 62 4 0 9 4 11 8 2 4 35 29 73 54 39 26 79 55 90 66 11 10 34
27 50 38 34 22 66 48 106 86 16 15 36 31 44 36 17 9 50 38 188 162 177 160
435 433 557 591 14 18 30 37 35 43 6 6 26 31 45 56 19 25 38 47 42 48 5 2 8 8
8 14 0 5 26 44 57 86 98 133 103 140 103 150 0 6 4 12 8 14 12 4 152 232 152
246 0 7 4 12 9 12 5 0 11 8 14 18 7 20 49 94 58 102 4 3 10 16 14 30 4 14 11
27 14 30 12 9 121 232 121 246 0 8 3 14 8 14 4 0 13 15 21 33 24 57 39 91 65
150 14 32 26 60 26 63 0 3 7 21 15 40 8 19 22 49 30 68 8 19 15 40 15 48 0 8
4 18 8 24 4 5 16 36 27 69 10 33 22 65 26 70 4 6 10 27 14 48 4 20 11 40 16
43 5 3 9 16 9 29 0 13 4 26 9 30 6 3 13 26 17 50 3 25 10 47 14 50 5 3 11 28
15 55 4 27 11 52 16 56 5 3 9 15 9 28 0 12 3 26 7 30 8 8 30 94 40 156 3 19 9
40 13 45 5 6 11 37 15 70 4 33 11 62 14 65 6 4 16 53 37 190 3 19 8 42 12 50
7 17 30 169 38 250 3 30 10 60 14 65 4 6 11 62 15 125 4 63 11 120 15 125 8
10 10 26 29 295 20 298 10 1048 -19 1285 -5 44 -14 125 -20 180 -25 238 -116
422 -208 426 -101 4 -131 -12 -193 -101 -187 -272 -408 -464 -774 -672 -162
-93 -204 -71 -250 127 -15 65 -50 199 -77 299 -27 99 -53 195 -57 211 l-7 30
-344 6 c-324 6 -351 7 -450 31 -420 102 -678 344 -789 740 -44 155 -51 250
-51 669 l0 397 -407 5 c-231 3 -441 10 -483 17 -510 78 -802 370 -891 888 -17
103 -19 165 -19 645 0 421 3 551 15 622 69 424 305 700 740 869 90 34 91 37
44 97 -16 20 -29 40 -29 44 0 4 -10 20 -22 35 -45 55 -58 74 -58 82 0 7 -10
20 -72 92 -15 17 -28 34 -28 38 0 4 -12 20 -27 37 -16 16 -48 55 -73 86 -25
32 -56 70 -70 84 -14 14 -41 46 -60 71 -19 24 -57 67 -85 95 -27 29 -87 90
-131 136 -86 89 -239 232 -289 271 -16 13 -39 32 -50 43 -11 12 -40 36 -65 55
-25 19 -46 38 -48 42 -2 5 -8 8 -14 8 -6 0 -20 10 -32 23 -12 13 -36 32 -54
42 -18 11 -32 23 -32 27 0 4 -7 8 -15 8 -8 0 -15 3 -15 8 0 4 -18 18 -40 32
-22 14 -40 28 -40 32 0 5 -6 8 -14 8 -8 0 -16 3 -18 8 -1 4 -28 23 -58 42 -30
19 -57 37 -60 40 -9 10 -45 31 -62 36 -10 4 -18 10 -18 14 0 5 -10 12 -22 16
-13 4 -25 9 -28 13 -3 3 -25 16 -50 29 -25 13 -69 37 -99 53 -29 16 -81 33
-115 39 -68 11 -79 11 -151 0z m1333 -6019 c20 -21 64 -71 97 -111 33 -40 72
-84 86 -99 14 -15 34 -41 44 -59 11 -18 22 -32 26 -32 4 0 18 -17 30 -37 13
-21 33 -48 44 -60 31 -34 39 -45 60 -80 11 -18 23 -33 27 -33 4 0 8 -5 8 -10
0 -6 5 -16 10 -23 32 -38 100 -139 100 -147 0 -6 3 -10 8 -10 4 0 16 -17 27
-37 11 -21 26 -44 32 -51 7 -7 13 -19 13 -27 0 -7 4 -15 8 -17 9 -4 80 -118
107 -173 11 -22 23 -41 28 -43 4 -2 7 -10 7 -18 0 -8 4 -14 9 -14 5 0 12 -12
16 -27 3 -15 10 -30 13 -33 11 -8 122 -235 122 -248 0 -7 5 -12 10 -12 6 0 10
-6 10 -13 0 -7 18 -48 40 -92 22 -44 40 -88 40 -97 0 -10 4 -18 9 -18 5 0 12
-18 16 -40 4 -22 11 -40 16 -40 5 0 9 -6 9 -14 0 -7 7 -27 15 -42 8 -16 15
-38 15 -50 0 -11 4 -24 8 -30 5 -5 17 -36 27 -69 10 -33 21 -69 26 -80 4 -11
15 -47 25 -80 9 -33 23 -79 30 -103 8 -23 14 -54 14 -67 0 -13 4 -26 9 -29 5
-3 11 -23 15 -43 11 -78 33 -189 39 -203 3 -8 11 -60 17 -115 6 -55 16 -136
21 -180 15 -122 22 -545 10 -569 -6 -12 -13 -57 -16 -101 -3 -44 -8 -116 -11
-159 -5 -73 -3 -84 23 -135 30 -60 65 -99 104 -118 91 -44 91 -44 250 -40 168
5 334 21 389 36 19 6 49 12 65 15 81 13 152 28 170 36 36 15 127 40 144 40 9
0 22 5 27 10 6 6 31 12 55 13 l44 2 0 -240 c0 -243 -10 -423 -25 -460 -4 -11
-13 -60 -19 -110 -7 -49 -16 -112 -21 -140 -14 -76 -38 -190 -40 -190 -3 0
-30 -115 -37 -152 -3 -18 -9 -33 -13 -33 -4 0 -11 -21 -15 -46 -4 -26 -11 -55
-16 -65 -5 -11 -13 -28 -19 -39 -5 -10 -13 -37 -16 -60 -4 -22 -9 -40 -13 -40
-7 0 -27 -45 -37 -82 -3 -16 -10 -28 -15 -28 -5 0 -9 -7 -9 -16 0 -22 -160
-344 -171 -344 -5 0 -9 -5 -9 -11 0 -14 -106 -185 -131 -212 -10 -11 -21 -29
-25 -39 -3 -10 -10 -18 -15 -18 -5 0 -9 -6 -9 -13 0 -7 -13 -26 -30 -42 -16
-16 -30 -32 -30 -37 0 -4 -9 -18 -19 -30 -11 -13 -29 -34 -41 -48 -157 -187
-341 -367 -480 -470 -19 -14 -41 -32 -50 -40 -8 -8 -40 -31 -70 -50 -30 -19
-56 -38 -58 -42 -2 -5 -10 -8 -18 -8 -8 0 -14 -4 -14 -10 0 -5 -11 -12 -25
-16 -14 -3 -25 -10 -25 -15 0 -5 -6 -9 -14 -9 -8 0 -21 -6 -28 -13 -12 -12
-214 -113 -278 -140 -14 -5 -38 -15 -55 -22 -16 -7 -43 -18 -60 -25 -16 -7
-38 -16 -47 -21 -10 -5 -26 -9 -35 -9 -10 0 -30 -7 -45 -14 -16 -8 -48 -18
-73 -22 -25 -3 -48 -10 -51 -15 -3 -5 -18 -9 -35 -9 -16 0 -29 -4 -29 -8 0 -5
-33 -14 -72 -20 -40 -7 -95 -17 -123 -22 -27 -6 -102 -15 -165 -21 -63 -6
-137 -15 -165 -20 -87 -18 -539 3 -650 30 -22 6 -53 12 -70 15 -134 24 -174
32 -181 38 -4 5 -18 8 -30 8 -13 0 -25 4 -28 9 -4 5 -29 12 -56 16 -27 4 -52
11 -56 16 -3 5 -15 9 -27 9 -12 0 -35 7 -51 15 -15 8 -35 15 -42 15 -8 0 -22
4 -32 9 -42 21 -94 41 -107 41 -8 0 -15 4 -15 9 0 5 -16 12 -35 15 -19 4 -35
11 -35 16 0 6 -4 10 -10 10 -16 0 -90 34 -90 42 0 3 -13 9 -30 13 -16 4 -30
11 -30 16 0 5 -6 9 -14 9 -8 0 -16 3 -18 8 -1 4 -33 23 -70 42 -38 19 -68 38
-68 42 0 4 -7 8 -15 8 -9 0 -18 7 -21 15 -4 8 -10 15 -16 15 -9 0 -70 42 -96
67 -7 7 -17 13 -20 13 -4 0 -18 10 -32 23 -14 12 -41 34 -60 48 -66 50 -301
290 -370 379 -14 17 -37 46 -52 62 -16 17 -28 37 -28 44 0 8 -4 14 -9 14 -5 0
-12 8 -15 18 -3 9 -17 30 -31 46 -14 16 -25 35 -25 43 0 7 -4 13 -10 13 -5 0
-10 7 -10 15 0 8 -4 15 -10 15 -5 0 -12 11 -16 25 -3 14 -10 25 -14 25 -4 0
-11 11 -14 25 -4 14 -11 25 -16 25 -6 0 -10 7 -10 15 0 8 -4 15 -10 15 -5 0
-10 5 -10 12 0 6 -11 34 -24 62 -68 145 -86 185 -86 199 0 9 -4 18 -9 21 -5 3
-12 22 -16 42 -3 20 -10 44 -14 53 -16 31 -41 116 -41 138 0 12 -4 24 -9 27
-5 3 -11 20 -14 38 -3 18 -13 74 -22 123 -44 241 -46 602 -5 925 6 47 15 93
20 102 6 10 10 31 10 48 0 16 5 30 10 30 6 0 10 11 10 24 0 24 26 119 40 146
4 9 11 35 15 58 4 23 11 42 16 42 5 0 9 7 9 16 0 9 6 30 14 47 33 75 44 104
57 140 7 20 16 37 21 37 4 0 10 16 14 35 3 19 10 35 15 35 5 0 9 7 9 15 0 8 4
15 9 15 5 0 12 12 16 27 3 15 10 30 13 33 4 3 16 23 27 45 11 22 36 67 57 101
21 34 38 66 38 72 0 6 4 12 8 14 45 19 201 449 277 764 31 127 68 343 87 499
8 70 13 224 13 420 -1 314 -14 476 -59 710 -8 39 -13 71 -11 73 7 7 198 -173
277 -261 186 -206 312 -380 418 -579 68 -128 134 -204 207 -239 35 -17 58 -20
111 -17 99 5 159 39 275 156 108 109 101 102 182 198 95 113 97 116 144 179
24 33 48 62 53 63 4 2 8 8 8 13 0 6 6 17 13 25 37 44 55 72 63 97 4 9 10 17
14 17 7 0 90 125 90 136 0 3 10 20 23 37 23 34 59 95 80 137 6 14 14 27 17 30
3 3 14 22 24 43 11 20 23 37 28 37 4 0 8 4 8 10 0 17 34 90 42 90 5 0 8 5 8
12 0 6 18 50 41 97 22 47 48 102 56 121 8 19 19 43 24 52 5 10 9 23 9 29 0 10
22 65 40 100 5 9 12 33 15 53 4 20 11 39 16 42 5 3 9 18 9 33 0 53 18 54 68 2z"/>
<path d="M11445 14928 c-16 -5 -52 -17 -80 -26 -48 -15 -125 -53 -152 -76 -60
-49 -118 -115 -128 -145 -3 -12 -11 -21 -16 -21 -5 0 -9 -8 -9 -18 0 -10 -7
-27 -15 -38 -8 -10 -15 -28 -15 -39 0 -12 -6 -27 -12 -33 -10 -10 -14 -179
-18 -750 l-5 -737 -715 -6 c-675 -5 -718 -7 -765 -25 -76 -30 -145 -65 -145
-74 0 -5 -8 -11 -18 -14 -42 -14 -145 -131 -158 -180 -3 -14 -10 -26 -15 -26
-4 0 -11 -16 -15 -35 -3 -19 -10 -38 -15 -41 -5 -3 -9 -20 -9 -39 0 -19 -4
-37 -10 -40 -6 -4 -10 -163 -10 -445 0 -282 4 -441 10 -445 6 -3 10 -19 10
-35 0 -30 56 -162 71 -168 5 -2 9 -9 9 -17 0 -17 108 -127 148 -150 17 -11 32
-22 32 -26 0 -4 12 -10 27 -14 15 -3 45 -16 67 -28 41 -22 46 -22 771 -27
l730 -5 5 -710 c4 -515 8 -716 17 -730 14 -25 43 -91 43 -99 0 -26 146 -186
170 -186 5 0 10 -4 10 -8 0 -10 72 -46 123 -61 20 -6 52 -15 70 -21 45 -14
994 -14 1002 0 3 6 17 10 30 10 13 0 26 4 29 9 3 5 22 12 41 15 19 4 35 11 35
16 0 5 9 12 21 15 63 20 209 187 209 239 0 9 4 16 8 16 4 0 14 24 22 53 11 41
14 197 17 749 l3 697 730 3 c567 2 732 6 742 16 6 6 22 12 34 12 13 0 25 4 29
9 3 5 19 12 35 16 17 4 30 11 30 16 0 5 7 9 15 9 8 0 15 4 15 9 0 5 9 13 21
16 25 8 126 109 134 136 4 10 11 19 16 19 5 0 9 6 9 14 0 8 3 16 8 18 13 6 41
72 56 136 13 53 16 138 16 492 0 445 -4 495 -46 587 -8 17 -14 36 -14 42 0 6
-4 11 -10 11 -5 0 -10 7 -10 15 0 8 -4 15 -9 15 -5 0 -12 8 -16 19 -6 20 -75
91 -122 127 -44 33 -142 75 -203 87 -34 6 -329 12 -757 14 l-703 4 -3 732 c-3
725 -6 792 -36 832 -5 5 -11 22 -15 38 -3 15 -11 27 -16 27 -6 0 -10 4 -10 10
0 12 -33 53 -76 95 -40 38 -51 47 -94 71 -19 10 -37 22 -40 26 -3 3 -19 10
-35 14 -17 4 -34 10 -40 14 -5 4 -28 11 -50 15 -62 12 -955 15 -990 3z"/>
</g>
</svg>
